<?xml version="1.0" ?>
<!DOCTYPE svg  PUBLIC '-//W3C//DTD SVG 1.1//EN'  'http://www.w3.org/Graphics/SVG/1.1/DTD/svg11.dtd'>
<!-- Uploaded to: SVG Repo, www.svgrepo.com, Generator: SVG Repo Mixer Tools -->
<svg width="800px" height="800px" viewBox="0 0 512 512" version="1.1" xml:space="preserve" xmlns="http://www.w3.org/2000/svg" xmlns:xlink="http://www.w3.org/1999/xlink">
<g id="_x35_22_x2C__learining_x2C__teacher_x2C__abc_x2C__board">
<g>
<polygon points="141,356 121,476 91,476 111,356   " style="fill:#73665C;"/>
<polygon points="118,364.5 139.583,364.5 141,356 111,356 91,476 99.417,476   " style="fill:#60534A;"/>
<polygon points="391,356 411,476 381,476 361,356   " style="fill:#73665C;"/>
<polygon points="369.875,363.625 392.271,363.625 391,356 361,356 381,476 388.604,476   " style="fill:#60534A;"/>
<polygon points="401,316 401,356 391,356 361,356 341,356 341,316   " style="fill:#F0F1F1;"/>
<polygon points="349.913,325.083 401,325.083 401,316 341,316 341,356 349.913,356   " style="fill:#DEE0E0;"/>
<rect height="30" style="fill:#73665C;" width="120" x="191" y="36"/>
<polygon points="199.425,44.667 311,44.667 311,36 191,36 191,66 199.425,66   " style="fill:#60534A;"/>
<polygon points="381,66 381,106 121,106 121,66 191,66 311,66   " style="fill:#FEBE76;"/>
<polygon points="129.167,75 199.167,75 319.166,75 381,75 381,66 311,66 191,66 121,66 121,106     129.167,106   " style="fill:#E8A664;"/>
<path d="M441,356l-20-250h-40H121H81L61,356h50h30h200v-40h60v40H441z" style="fill:#57606F;"/>
<g>
<g>
<g>
<polygon points="93,119 133,119 393,119 422.04,119 421,106 381,106 121,106 81,106 61,356 74.04,356             " style="fill:#414A56;"/>
</g>
</g>
</g>
<path d="M339.99,202.92l11.34,6.53c-1.14,2.67-2.76,5.03-4.87,7.07c-2.1,2.04-4.479,3.76-7.12,5.17    c-2.64,1.4-5.47,2.47-8.479,3.21c-3.011,0.73-5.95,1.1-8.83,1.1c-5.08,0-9.73-1.07-13.94-3.21s-7.84-4.93-10.89-8.38    c-3.04-3.44-5.41-7.35-7.12-11.74c-1.7-4.38-2.561-8.84-2.561-13.39c0-4.35,0.79-8.64,2.36-12.89s3.86-8.04,6.87-11.39    c3.01-3.34,6.69-6.05,11.04-8.12c4.34-2.08,9.29-3.11,14.85-3.11c6.551,0,12.221,1.43,17,4.31c4.78,2.88,8.341,6.62,10.69,11.24    l-10.64,7.32c-0.94-2.01-2.07-3.69-3.41-5.07c-1.34-1.37-2.78-2.45-4.311-3.26c-1.54-0.8-3.149-1.38-4.819-1.75    s-3.311-0.56-4.92-0.56c-3.471,0-6.5,0.71-9.07,2.11c-2.58,1.41-4.72,3.23-6.43,5.47c-1.7,2.24-2.99,4.78-3.86,7.62    c-0.87,2.85-1.3,5.67-1.3,8.48c0,3.15,0.5,6.17,1.5,9.08c1.01,2.91,2.43,5.47,4.27,7.68c1.83,2.2,4.04,3.98,6.62,5.31    c2.57,1.34,5.4,2.01,8.48,2.01c1.6,0,3.27-0.2,5.01-0.6c1.74-0.4,3.399-1.04,4.97-1.91s3.021-1.99,4.36-3.36    C338.12,206.52,339.19,204.87,339.99,202.92z"/>
<path d="M277.44,195.35c2.369,3.11,3.56,7.01,3.56,11.69c0,3.01-0.6,5.65-1.8,7.92c-1.21,2.28-2.86,4.18-4.97,5.72    c-2.11,1.54-4.551,2.71-7.32,3.51c-2.78,0.81-5.74,1.21-8.88,1.21h-34.41v-71.23h38.12c2.47,0,4.72,0.53,6.72,1.6    c2.01,1.07,3.71,2.46,5.12,4.17c1.4,1.7,2.49,3.64,3.26,5.81c0.771,2.18,1.15,4.37,1.15,6.58c0,3.47-0.87,6.73-2.61,9.78    c-1.74,3.04-4.28,5.3-7.62,6.77C271.84,190.08,275.07,192.24,277.44,195.35z M267.06,204.43c0-1.27-0.22-2.49-0.659-3.66    c-0.431-1.17-1.021-2.19-1.75-3.06c-0.74-0.87-1.61-1.56-2.61-2.06s-2.11-0.75-3.31-0.75H237.46v18.76h20.57    c1.27,0,2.46-0.23,3.56-0.7c1.101-0.47,2.061-1.12,2.86-1.96c0.8-0.83,1.439-1.82,1.91-2.96    C266.82,206.91,267.06,205.7,267.06,204.43z M264.35,174.93c0-2.74-0.75-4.91-2.26-6.52c-1.5-1.6-3.359-2.41-5.57-2.41h-19.06    v17.96h18.46c2.34,0,4.33-0.8,5.97-2.4C263.53,179.95,264.35,177.74,264.35,174.93z"/>
<path d="M188.7,154.17l27.09,71.23h-14.25l-6.62-17.76h-24.88l-6.52,17.76h-14.25l27.19-71.23H188.7z M192.42,197.91l-9.84-27.99    l-10.23,27.99H192.42z"/>
<path d="M441,361h-40c-2.762,0-5-2.238-5-5s2.238-5,5-5h34.584l-19.2-240H381c-2.762,0-5-2.239-5-5s2.238-5,5-5h40    c2.606,0,4.776,2.003,4.984,4.601l20,250c0.111,1.391-0.364,2.765-1.311,3.79S442.396,361,441,361z"/>
<path d="M111,361H61c-1.396,0-2.727-0.583-3.674-1.608c-0.946-1.025-1.421-2.399-1.31-3.79l20-250    C76.224,103.003,78.393,101,81,101h40c2.761,0,5,2.239,5,5s-2.239,5-5,5H85.616l-19.2,240H111c2.761,0,5,2.238,5,5    S113.761,361,111,361z"/>
<path d="M341,361H141c-2.761,0-5-2.238-5-5s2.239-5,5-5h200c2.762,0,5,2.238,5,5S343.762,361,341,361z"/>
<path d="M121.006,481.001c-0.273,0-0.549-0.022-0.828-0.069c-2.724-0.454-4.564-3.029-4.11-5.754L135.098,361h-19.862    L95.932,476.822c-0.454,2.724-3.025,4.57-5.754,4.109c-2.724-0.454-4.564-3.029-4.11-5.754l20-120    C106.47,352.767,108.556,351,111,351h30c1.47,0,2.865,0.646,3.815,1.769c0.95,1.121,1.358,2.604,1.117,4.054l-20,120    C125.524,479.268,123.406,481.001,121.006,481.001z"/>
<path d="M380.994,481.001c-2.4,0-4.519-1.733-4.926-4.179l-20-120c-0.454-2.725,1.386-5.3,4.109-5.754    c2.728-0.464,5.3,1.386,5.754,4.109l20,120c0.454,2.725-1.386,5.3-4.109,5.754C381.544,480.979,381.267,481.001,380.994,481.001z"/>
<path d="M410.994,481.001c-2.4,0-4.519-1.733-4.926-4.179l-20-120c-0.454-2.725,1.386-5.3,4.109-5.754    c2.729-0.464,5.3,1.386,5.754,4.109l20,120c0.454,2.725-1.386,5.3-4.109,5.754C411.544,480.979,411.267,481.001,410.994,481.001z"/>
<path d="M361,401H141c-2.761,0-5-2.238-5-5s2.239-5,5-5h220c2.762,0,5,2.238,5,5S363.762,401,361,401z"/>
<path d="M381,111H121c-2.761,0-5-2.239-5-5V66c0-2.761,2.239-5,5-5h70c2.761,0,5,2.239,5,5s-2.239,5-5,5h-65v30h250V71h-65    c-2.762,0-5-2.239-5-5s2.238-5,5-5h70c2.762,0,5,2.239,5,5v40C386,108.761,383.762,111,381,111z"/>
<path d="M311,71H191c-2.761,0-5-2.239-5-5V36c0-2.761,2.239-5,5-5h120c2.762,0,5,2.239,5,5v30C316,68.761,313.762,71,311,71z     M196,61h110V41H196V61z"/>
<path d="M241.34,321H71c-2.761,0-5-2.238-5-5s2.239-5,5-5h170.34c2.761,0,5,2.238,5,5S244.101,321,241.34,321z"/>
<path d="M461,361h-20c-2.762,0-5-2.238-5-5s2.238-5,5-5h20c2.762,0,5,2.238,5,5S463.762,361,461,361z"/>
<path d="M61,361H41c-2.761,0-5-2.238-5-5s2.239-5,5-5h20c2.761,0,5,2.238,5,5S63.761,361,61,361z"/>
<path d="M401,361h-60c-2.762,0-5-2.238-5-5v-40c0-2.762,2.238-5,5-5h60c2.762,0,5,2.238,5,5v40C406,358.762,403.762,361,401,361z     M346,351h50v-30h-50V351z"/>
<path d="M361,261H141c-2.761,0-5-2.238-5-5c0-2.761,2.239-5,5-5h220c2.762,0,5,2.239,5,5C366,258.762,363.762,261,361,261z"/>
<path d="M211,481H41c-2.761,0-5-2.238-5-5s2.239-5,5-5h170c2.761,0,5,2.238,5,5S213.761,481,211,481z"/>
<path d="M441,481H281c-2.762,0-5-2.238-5-5s2.238-5,5-5h160c2.762,0,5,2.238,5,5S443.762,481,441,481z"/>
</g>
</g>
<g id="Layer_1"/>
</svg>