<?xml version="1.0" encoding="iso-8859-1"?>
<!-- Uploaded to: SVG Repo, www.svgrepo.com, Generator: SVG Repo Mixer Tools -->
<svg version="1.1" id="Capa_1" xmlns="http://www.w3.org/2000/svg" xmlns:xlink="http://www.w3.org/1999/xlink" 
	 viewBox="0 0 465.11 465.11" xml:space="preserve">
<g id="XMLID_5_">
	<g>
		<path d="M465.11,274.485v86.35H0v-86.35v-79.37v-90.84h465.11v90.84V274.485z M456.11,351.835v-12.59H9v12.59H456.11z
			 M456.11,330.245v-12.59H9v12.59H456.11z M456.11,308.655v-12.58H9v12.58H456.11z M456.11,287.075v-12.59H9v12.59H456.11z
			 M456.11,262.835v-67.72v-79.19l-152.76,73.46L456.11,262.835z M232.56,213.435l208.31-100.16H24.25L232.56,213.435z
			 M24.25,265.485h416.62l-147.91-71.11l-60.4,29.04l-60.41-29.04L24.25,265.485z M9,262.835l152.77-73.45L9,115.925v79.19V262.835z
			"/>
		<rect x="9" y="339.245" style="fill:#E2B369;" width="447.11" height="12.59"/>
		<rect x="9" y="317.655" style="fill:#E2B369;" width="447.11" height="12.59"/>
		<rect x="9" y="296.075" style="fill:#E2B369;" width="447.11" height="12.58"/>
		<rect x="9" y="274.485" style="fill:#E2B369;" width="447.11" height="12.59"/>
		<polygon style="fill:#FFCC73;" points="456.11,195.115 456.11,262.835 303.35,189.385 456.11,115.925 		"/>
		<polygon style="fill:#FFCC73;" points="440.87,113.275 232.56,213.435 24.25,113.275 		"/>
		<polygon style="fill:#FFCC73;" points="440.87,265.485 24.25,265.485 172.15,194.375 232.56,223.415 292.96,194.375 		"/>
		<polygon style="fill:#FFCC73;" points="161.77,189.385 9,262.835 9,195.115 9,115.925 		"/>
	</g>
</g>
</svg>