<?xml version="1.0" encoding="utf-8"?>
<!-- Uploaded to: SVG Repo, www.svgrepo.com, Generator: SVG Repo Mixer Tools -->
<svg width="800px" height="800px" viewBox="0 0 1024 1024" class="icon"  version="1.1" xmlns="http://www.w3.org/2000/svg"><path d="M188.73856 511.8208c0.4864-175.66208 143.01696-317.92128 318.79168-317.92128s318.30528 142.2592 318.79168 317.92128h53.02272c-0.4864-204.94336-166.75328-370.93888-371.8144-370.93888s-371.328 165.99552-371.8144 370.93888h53.02272z" fill="#C8C6C4" /><path d="M74.94144 734.87872a17.92 17.92 0 1 1-35.84 0v-204.7744a17.92 17.92 0 1 1 35.84 0v204.7744z" fill="#8393CA" /><path d="M284.83584 732.31872c0 67.85536-45.83936 122.86464-102.38464 122.86464h-12.8c-56.54528 0-102.38464-55.00928-102.38464-122.86464v-189.4144c0-67.85536 45.83936-122.86464 102.38464-122.86464h12.8c56.54528 0 102.38464 55.00928 102.38464 122.86464v189.4144z" fill="#E6E4E2" /><path d="M330.91072 724.63872a28.15488 28.15488 0 0 1-56.30976 0v-194.5344a28.15488 28.15488 0 0 1 56.30976 0v194.5344z" fill="#C3CBE7" /><path d="M940.11392 734.87872a17.92 17.92 0 1 0 35.84 0v-204.7744a17.92 17.92 0 1 0-35.84 0v204.7744z" fill="#8393CA" /><path d="M730.21952 732.31872c0 67.85536 45.83936 122.86464 102.38464 122.86464h12.8c56.54528 0 102.38464-55.00928 102.38464-122.86464v-189.4144c0-67.85536-45.83936-122.86464-102.38464-122.86464h-12.8c-56.54528 0-102.38464 55.00928-102.38464 122.86464v189.4144z" fill="#E6E4E2" /><path d="M684.14464 724.63872a28.15488 28.15488 0 0 0 56.30976 0v-194.5344a28.15488 28.15488 0 0 0-56.30976 0v194.5344z" fill="#C3CBE7" /><path d="M316.928 181.76l39.10144 67.72736c40.70912-24.48896 100.87424-46.38208 149.86752-46.38208 49.26464 0 111.14496 22.8864 152.01792 47.63136l37.61152-68.54656c-55.69024-36.6592-120.45312-57.76384-189.62944-57.76384-68.90496 0-133.4272 20.9408-188.96896 57.33376z" fill="#8393CA" /></svg>