<?xml version="1.0" encoding="iso-8859-1"?>
<!-- Uploaded to: SVG Repo, www.svgrepo.com, Generator: SVG Repo Mixer Tools -->
<svg height="800px" width="800px" version="1.1" id="Layer_1" xmlns="http://www.w3.org/2000/svg" xmlns:xlink="http://www.w3.org/1999/xlink" 
	 viewBox="0 0 512 512" xml:space="preserve">
<polygon style="fill:#FFE1D6;" points="57.229,403.185 30.938,456.844 54.005,479.91 107.663,453.62 "/>
<polygon style="fill:#EBEDEC;" points="449.449,110.045 410.055,149.438 361.41,100.863 400.803,61.47 "/>
<path style="fill:#FFB14D;" d="M407.578,149.66L109.09,450.143l-48.384-47.549c0-0.012,298.488-300.483,298.488-300.483
	L407.578,149.66z"/>
<path style="fill:#EE3840;" d="M491.411,21.226c15.968,15.715,11.344,44.703-4.623,60.42l-28.886,28.43L399.98,53.068l28.873-28.43
	C444.819,8.909,475.429,5.497,491.411,21.226z"/>
<path style="fill:#11113F;" d="M498.024,13.979C489.01,4.965,477.01,0,464.235,0c-12.774,0-24.774,4.965-33.788,13.979
	l-30.526,30.527c-4.525-4.526-11.861-4.526-16.391,0c-4.526,4.526-4.526,11.864,0,16.39l-24.585,24.585
	c-4.525-4.526-11.861-4.526-16.391,0c-4.526,4.526-4.526,11.864,0,16.39L52.568,391.857c-0.007,0.007-0.013,0.013-0.02,0.02
	c-0.001,0.001-0.002,0.001-0.002,0.002c-0.987,0.992-1.757,2.117-2.311,3.318l-26.442,53.971c-0.082,0.16-0.162,0.321-0.238,0.484
	l-22.37,45.658c-2.18,4.449-1.29,9.791,2.212,13.294C5.623,510.829,8.589,512,11.596,512c1.729,0,3.472-0.387,5.095-1.183
	l45.652-22.367c0.168-0.077,0.333-0.159,0.498-0.243l53.965-26.44c1.2-0.554,2.324-1.324,3.315-2.309
	c0.001-0.001,0.002-0.001,0.002-0.002c0.007-0.007,0.014-0.013,0.021-0.02l289.986-289.986c4.527,4.527,11.863,4.527,16.391,0
	c4.526-4.526,4.526-11.864,0-16.391l24.585-24.585c4.527,4.527,11.863,4.527,16.391,0c4.526-4.526,4.526-11.864,0-16.39
	l30.527-30.527C516.654,62.925,516.654,32.611,498.024,13.979z M59.832,463.87l-11.7-11.698l15.902-32.455l28.253,28.253
	L59.832,463.87z M111.95,434.85l-34.796-34.798l281.792-281.791l34.796,34.798L111.95,434.85z M410.131,136.668l-34.796-34.798
	l24.585-24.585l34.798,34.798L410.131,136.668z M481.634,65.167l-30.527,30.527l-34.796-34.798l30.527-30.527
	c4.636-4.636,10.815-7.19,17.398-7.19c6.584,0,12.764,2.553,17.399,7.19C491.228,39.963,491.228,55.573,481.634,65.167z"/>
</svg>